<svg width="1200" height="824" viewBox="0 0 1200 824" fill="none" xmlns="http://www.w3.org/2000/svg">
    <g clip-path="url(#clip0_312_220)">
        <line y1="74.5" x2="1200" y2="74.5" stroke="currentColor" />
        <line y1="149.5" x2="1200" y2="149.5" stroke="currentColor" />
        <line y1="224.5" x2="1200" y2="224.5" stroke="currentColor" />
        <line y1="299.5" x2="1200" y2="299.5" stroke="currentColor" />
        <line y1="374.5" x2="1200" y2="374.5" stroke="currentColor" />
        <line y1="449.5" x2="1200" y2="449.5" stroke="currentColor" />
        <line y1="524.5" x2="1200" y2="524.5" stroke="currentColor" />
        <line y1="599.5" x2="1200" y2="599.5" stroke="currentColor" />
        <line y1="-0.5" x2="1200" y2="-0.5" transform="matrix(1 0.00080921 -0.00129996 0.999999 0.000244141 675)"
            stroke="currentColor" />
        <line y1="-0.5" x2="1200" y2="-0.5" transform="matrix(1 0.00080921 -0.00129996 0.999999 0.000244141 750.971)"
            stroke="currentColor" />
        <line x1="75.5" x2="75.5" y2="825" stroke="currentColor" />
        <line x1="150.5" x2="150.5" y2="825" stroke="currentColor" />
        <line x1="225.5" x2="225.5" y2="825" stroke="currentColor" />
        <line x1="300.5" x2="300.5" y2="825" stroke="currentColor" />
        <line x1="375.5" x2="375.5" y2="825" stroke="currentColor" />
        <line x1="450.5" x2="450.5" y2="825" stroke="currentColor" />
        <line x1="525.5" x2="525.5" y2="825" stroke="currentColor" />
        <line x1="600.5" x2="600.5" y2="825" stroke="currentColor" />
        <line x1="675.5" x2="675.5" y2="825" stroke="currentColor" />
        <line x1="750.5" x2="750.5" y2="825" stroke="currentColor" />
        <line x1="825.5" x2="825.5" y2="825" stroke="currentColor" />
        <line x1="900.5" x2="900.5" y2="825" stroke="currentColor" />
        <line x1="975.5" x2="975.5" y2="825" stroke="currentColor" />
        <line x1="1050.5" x2="1050.5" y2="825" stroke="currentColor" />
        <line x1="1125.5" x2="1125.5" y2="825" stroke="currentColor" />
    </g>
    <defs>
        <clipPath id="clip0_312_220">
            <rect width="1200" height="824" fill="white" />
        </clipPath>
    </defs>
</svg>