<svg width="1200" height="824" viewBox="0 0 1200 824" fill="none" xmlns="http://www.w3.org/2000/svg">
<circle cx="75" cy="75" r="4" fill="currentColor"/>
<circle cx="150" cy="75" r="4" fill="currentColor"/>
<circle cx="225" cy="75" r="4" fill="currentColor"/>
<circle cx="300" cy="75" r="4" fill="currentColor"/>
<circle cx="375" cy="75" r="4" fill="currentColor"/>
<circle cx="450" cy="75" r="4" fill="currentColor"/>
<circle cx="525" cy="75" r="4" fill="currentColor"/>
<circle cx="600" cy="75" r="4" fill="currentColor"/>
<circle cx="675" cy="75" r="4" fill="currentColor"/>
<circle cx="750" cy="75" r="4" fill="currentColor"/>
<circle cx="825" cy="75" r="4" fill="currentColor"/>
<circle cx="900" cy="75" r="4" fill="currentColor"/>
<circle cx="975" cy="75" r="4" fill="currentColor"/>
<circle cx="1050" cy="75" r="4" fill="currentColor"/>
<circle cx="1125" cy="75" r="4" fill="currentColor"/>
<circle cx="75" cy="150" r="4" fill="currentColor"/>
<circle cx="150" cy="150" r="4" fill="currentColor"/>
<circle cx="225" cy="150" r="4" fill="currentColor"/>
<circle cx="300" cy="150" r="4" fill="currentColor"/>
<circle cx="375" cy="150" r="4" fill="currentColor"/>
<circle cx="450" cy="150" r="4" fill="currentColor"/>
<circle cx="525" cy="150" r="4" fill="currentColor"/>
<circle cx="600" cy="150" r="4" fill="currentColor"/>
<circle cx="675" cy="150" r="4" fill="currentColor"/>
<circle cx="750" cy="150" r="4" fill="currentColor"/>
<circle cx="825" cy="150" r="4" fill="currentColor"/>
<circle cx="900" cy="150" r="4" fill="currentColor"/>
<circle cx="975" cy="150" r="4" fill="currentColor"/>
<circle cx="1050" cy="150" r="4" fill="currentColor"/>
<circle cx="1125" cy="150" r="4" fill="currentColor"/>
<circle cx="75" cy="225" r="4" fill="currentColor"/>
<circle cx="150" cy="225" r="4" fill="currentColor"/>
<circle cx="225" cy="225" r="4" fill="currentColor"/>
<circle cx="300" cy="225" r="4" fill="currentColor"/>
<circle cx="375" cy="225" r="4" fill="currentColor"/>
<circle cx="450" cy="225" r="4" fill="currentColor"/>
<circle cx="525" cy="225" r="4" fill="currentColor"/>
<circle cx="600" cy="225" r="4" fill="currentColor"/>
<circle cx="675" cy="225" r="4" fill="currentColor"/>
<circle cx="750" cy="225" r="4" fill="currentColor"/>
<circle cx="825" cy="225" r="4" fill="currentColor"/>
<circle cx="900" cy="225" r="4" fill="currentColor"/>
<circle cx="975" cy="225" r="4" fill="currentColor"/>
<circle cx="1050" cy="225" r="4" fill="currentColor"/>
<circle cx="1125" cy="225" r="4" fill="currentColor"/>
<circle cx="75" cy="300" r="4" fill="currentColor"/>
<circle cx="150" cy="300" r="4" fill="currentColor"/>
<circle cx="225" cy="300" r="4" fill="currentColor"/>
<circle cx="300" cy="300" r="4" fill="currentColor"/>
<circle cx="375" cy="300" r="4" fill="currentColor"/>
<circle cx="450" cy="300" r="4" fill="currentColor"/>
<circle cx="525" cy="300" r="4" fill="currentColor"/>
<circle cx="600" cy="300" r="4" fill="currentColor"/>
<circle cx="675" cy="300" r="4" fill="currentColor"/>
<circle cx="750" cy="300" r="4" fill="currentColor"/>
<circle cx="825" cy="300" r="4" fill="currentColor"/>
<circle cx="900" cy="300" r="4" fill="currentColor"/>
<circle cx="975" cy="300" r="4" fill="currentColor"/>
<circle cx="1050" cy="300" r="4" fill="currentColor"/>
<circle cx="1125" cy="300" r="4" fill="currentColor"/>
<circle cx="75" cy="375" r="4" fill="currentColor"/>
<circle cx="150" cy="375" r="4" fill="currentColor"/>
<circle cx="225" cy="375" r="4" fill="currentColor"/>
<circle cx="300" cy="375" r="4" fill="currentColor"/>
<circle cx="375" cy="375" r="4" fill="currentColor"/>
<circle cx="450" cy="375" r="4" fill="currentColor"/>
<circle cx="525" cy="375" r="4" fill="currentColor"/>
<circle cx="600" cy="375" r="4" fill="currentColor"/>
<circle cx="675" cy="375" r="4" fill="currentColor"/>
<circle cx="750" cy="375" r="4" fill="currentColor"/>
<circle cx="825" cy="375" r="4" fill="currentColor"/>
<circle cx="900" cy="375" r="4" fill="currentColor"/>
<circle cx="975" cy="375" r="4" fill="currentColor"/>
<circle cx="1050" cy="375" r="4" fill="currentColor"/>
<circle cx="1125" cy="375" r="4" fill="currentColor"/>
<circle cx="75" cy="450" r="4" fill="currentColor"/>
<circle cx="150" cy="450" r="4" fill="currentColor"/>
<circle cx="225" cy="450" r="4" fill="currentColor"/>
<circle cx="300" cy="450" r="4" fill="currentColor"/>
<circle cx="375" cy="450" r="4" fill="currentColor"/>
<circle cx="450" cy="450" r="4" fill="currentColor"/>
<circle cx="525" cy="450" r="4" fill="currentColor"/>
<circle cx="600" cy="450" r="4" fill="currentColor"/>
<circle cx="675" cy="450" r="4" fill="currentColor"/>
<circle cx="750" cy="450" r="4" fill="currentColor"/>
<circle cx="825" cy="450" r="4" fill="currentColor"/>
<circle cx="900" cy="450" r="4" fill="currentColor"/>
<circle cx="975" cy="450" r="4" fill="currentColor"/>
<circle cx="1050" cy="450" r="4" fill="currentColor"/>
<circle cx="1125" cy="450" r="4" fill="currentColor"/>
<circle cx="75" cy="525" r="4" fill="currentColor"/>
<circle cx="150" cy="525" r="4" fill="currentColor"/>
<circle cx="225" cy="525" r="4" fill="currentColor"/>
<circle cx="300" cy="525" r="4" fill="currentColor"/>
<circle cx="375" cy="525" r="4" fill="currentColor"/>
<circle cx="450" cy="525" r="4" fill="currentColor"/>
<circle cx="525" cy="525" r="4" fill="currentColor"/>
<circle cx="600" cy="525" r="4" fill="currentColor"/>
<circle cx="675" cy="525" r="4" fill="currentColor"/>
<circle cx="750" cy="525" r="4" fill="currentColor"/>
<circle cx="825" cy="525" r="4" fill="currentColor"/>
<circle cx="900" cy="525" r="4" fill="currentColor"/>
<circle cx="975" cy="525" r="4" fill="currentColor"/>
<circle cx="1050" cy="525" r="4" fill="currentColor"/>
<circle cx="1125" cy="525" r="4" fill="currentColor"/>
<circle cx="75" cy="600" r="4" fill="currentColor"/>
<circle cx="150" cy="600" r="4" fill="currentColor"/>
<circle cx="225" cy="600" r="4" fill="currentColor"/>
<circle cx="300" cy="600" r="4" fill="currentColor"/>
<circle cx="375" cy="600" r="4" fill="currentColor"/>
<circle cx="450" cy="600" r="4" fill="currentColor"/>
<circle cx="525" cy="600" r="4" fill="currentColor"/>
<circle cx="600" cy="600" r="4" fill="currentColor"/>
<circle cx="675" cy="600" r="4" fill="currentColor"/>
<circle cx="750" cy="600" r="4" fill="currentColor"/>
<circle cx="825" cy="600" r="4" fill="currentColor"/>
<circle cx="900" cy="600" r="4" fill="currentColor"/>
<circle cx="975" cy="600" r="4" fill="currentColor"/>
<circle cx="1050" cy="600" r="4" fill="currentColor"/>
<circle cx="1125" cy="600" r="4" fill="currentColor"/>
<circle cx="75" cy="675" r="4" fill="currentColor"/>
<circle cx="150" cy="675" r="4" fill="currentColor"/>
<circle cx="225" cy="675" r="4" fill="currentColor"/>
<circle cx="300" cy="675" r="4" fill="currentColor"/>
<circle cx="375" cy="675" r="4" fill="currentColor"/>
<circle cx="450" cy="675" r="4" fill="currentColor"/>
<circle cx="525" cy="675" r="4" fill="currentColor"/>
<circle cx="600" cy="675" r="4" fill="currentColor"/>
<circle cx="675" cy="675" r="4" fill="currentColor"/>
<circle cx="750" cy="675" r="4" fill="currentColor"/>
<circle cx="825" cy="675" r="4" fill="currentColor"/>
<circle cx="900" cy="675" r="4" fill="currentColor"/>
<circle cx="975" cy="675" r="4" fill="currentColor"/>
<circle cx="1050" cy="675" r="4" fill="currentColor"/>
<circle cx="1125" cy="675" r="4" fill="currentColor"/>
<circle cx="75" cy="750" r="4" fill="currentColor"/>
<circle cx="150" cy="750" r="4" fill="currentColor"/>
<circle cx="225" cy="750" r="4" fill="currentColor"/>
<circle cx="300" cy="750" r="4" fill="currentColor"/>
<circle cx="375" cy="750" r="4" fill="currentColor"/>
<circle cx="450" cy="750" r="4" fill="currentColor"/>
<circle cx="525" cy="750" r="4" fill="currentColor"/>
<circle cx="600" cy="750" r="4" fill="currentColor"/>
<circle cx="675" cy="750" r="4" fill="currentColor"/>
<circle cx="750" cy="750" r="4" fill="currentColor"/>
<circle cx="825" cy="750" r="4" fill="currentColor"/>
<circle cx="900" cy="750" r="4" fill="currentColor"/>
<circle cx="975" cy="750" r="4" fill="currentColor"/>
<circle cx="1050" cy="750" r="4" fill="currentColor"/>
<circle cx="1125" cy="750" r="4" fill="currentColor"/>
</svg>
